<?xml version="1.0" encoding="UTF-8"?>
<svg width="24px" height="24px" viewBox="0 0 24 24" version="1.1" xmlns="http://www.w3.org/2000/svg" xmlns:xlink="http://www.w3.org/1999/xlink">
    <title>37006886-EA33-4475-A39C-F9A3C5BD34F7</title>
    <g id="Page-1" stroke="none" stroke-width="1" fill="none" fill-rule="evenodd">
        <g id="Supplier_1024" transform="translate(-908.000000, -4916.000000)">
            <g id="Group-22" transform="translate(573.000000, 4618.000000)">
                <g id="master-/-input-field-/-empty" transform="translate(144.000000, 273.000000)">
                    <g id="round-phone-24px" transform="translate(191.000000, 25.000000)">
                        <polygon id="Path" points="0 0 24 0 24 24 0 24"></polygon>
                        <path d="M18.4323135,14.9109086 L16.1699823,14.6526096 C15.6266665,14.5902615 15.0922576,14.7773057 14.7092645,15.1603008 L13.0704104,16.7991638 C10.5497815,15.5165754 8.48340026,13.4590898 7.20081878,10.9295403 L8.84857971,9.28177046 C9.23157279,8.8987753 9.41861592,8.36436345 9.35626821,7.82104474 L9.09797055,5.57651496 C8.99108876,4.67692168 8.23400942,4 7.3255142,4 L5.78463506,4 C4.77816488,4 3.94092419,4.83724523 4.0032719,5.84372089 C4.47533314,13.4501829 10.5586883,19.5246643 18.1562022,19.9967281 C19.1626724,20.0590761 20,19.2218309 20,18.2153552 L20,16.6744677 C20.0088199,15.7748745 19.3319019,15.017791 18.4323135,14.9109086 Z" id="Path" fill="#B4BABF"></path>
                    </g>
                </g>
            </g>
        </g>
    </g>
</svg>